<?xml version="1.0" encoding="utf-8"?>
<!-- Generator: Adobe Illustrator 16.0.0, SVG Export Plug-In . SVG Version: 6.00 Build 0)  -->
<!DOCTYPE svg PUBLIC "-//W3C//DTD SVG 1.1//EN" "http://www.w3.org/Graphics/SVG/1.1/DTD/svg11.dtd">
<svg version="1.1" id="Layer_1" xmlns="http://www.w3.org/2000/svg" xmlns:xlink="http://www.w3.org/1999/xlink" x="0px" y="0px"
	 width="500px" height="637.765px" viewBox="0 0 500 637.765" enable-background="new 0 0 500 637.765" xml:space="preserve">
<g>
	<path fill-rule="evenodd" clip-rule="evenodd" fill="#0F3247" d="M248.716,216.688"/>
	<polygon fill="#676E70" points="259.277,594.406 243.697,594.52 243.518,570.801 259.104,570.681 	"/>
	<polygon fill="#676E70" points="434.587,396.25 434.474,380.677 454.565,380.53 454.692,396.104 	"/>
	<polygon fill="#676E70" points="45.401,399.111 45.282,383.531 69.014,383.352 69.127,398.938 	"/>
	<polygon fill="#676E70" points="341.462,229.342 327.632,222.201 336.829,204.346 350.679,211.473 	"/>
	<polygon fill="#676E70" points="163.131,575.286 149.294,568.151 160.163,547.055 173.999,554.189 	"/>
	<polygon fill="#676E70" points="412.285,301.601 404.272,288.237 421.51,277.908 429.522,291.258 	"/>
	<polygon fill="#676E70" points="78.451,501.72 70.451,488.356 90.803,476.164 98.809,489.521 	"/>
	<polygon fill="#676E70" points="412.565,477.509 419.373,463.5 437.441,472.291 430.641,486.294 	"/>
	<polygon fill="#676E70" points="62.532,307.344 69.333,293.334 90.676,303.703 83.868,317.719 	"/>
	<polygon fill="#676E70" points="341.994,549.996 355.164,541.678 365.886,558.661 352.722,566.987 	"/>
	<polygon fill="#676E70" points="134.088,220.963 147.251,212.648 159.93,232.713 146.772,241.025 	"/>
	<path fill="#0F3247" d="M242.181,637.765l-0.16-21.35c-31.119-1.065-60.628-8.286-87.408-20.585l-9.776,18.974
		C174.584,628.606,207.514,636.699,242.181,637.765z"/>
	<path fill="#0F3247" d="M137.435,587.119c-31.192-17.649-57.879-42.294-77.805-71.969l-18.155,10.888
		c21.962,33.022,51.544,60.502,86.237,79.968L137.435,587.119z"/>
	<path fill="#0F3247" d="M49.514,498.766c-16.199-29.189-25.955-62.365-28.005-97.645l-21.423,0.16
		c2.123,39.212,13.237,75.988,31.319,108.339L49.514,498.766z"/>
	<path fill="#0F3247" d="M450.938,498.199l8.412-17.31l18.947,9.211c12.777-28.431,20.438-59.644,21.702-92.493l-21.39,0.159
		c-5.138,117.896-99.255,212.725-217.343,218.508l0.159,21.344c41.042-1.851,79.469-13.577,112.991-32.844l-10.715-16.977
		l16.278-10.275l10.781,17.07c32.77-22.349,59.923-52.276,78.996-87.242L450.938,498.199z"/>
	<path fill="#0F3247" d="M362.559,196.233c31.199,17.643,57.899,42.287,77.805,71.965l18.162-10.888
		c-21.962-33.026-51.551-60.509-86.23-79.972L362.559,196.233z"/>
	<path fill="#0F3247" d="M66.725,259.087c20.923-29.103,50.865-51.231,82.523-67.813l-10.282-20.195
		c-35.219,18.258-66.871,43.917-89.971,76.288L66.725,259.087z"/>
	<path fill="#0F3247" d="M450.485,284.576c16.213,29.189,25.955,62.372,28.012,97.645l21.39-0.153
		c-2.097-39.219-13.21-75.995-31.286-108.339L450.485,284.576z"/>
	<path fill="#0F3247" d="M114.129,196.509l-4.892-7.753c-32.776,22.345-59.923,52.276-78.996,87.235l18.814,9.158l-8.406,17.31
		l-18.947-9.218C8.931,321.679,1.278,352.892,0,385.734l21.39-0.153c3.221-73.852,41.355-138.64,98.423-178.171L114.129,196.509z"/>
	<path fill-rule="evenodd" clip-rule="evenodd" fill="#EC7622" d="M345.255,95.771c-14.694-14.535-29.495-28.86-43.791-42.713
		C285.093,37.202,264.082,16.728,247.278,0c-16.818,16.728-37.814,37.202-54.187,53.058c-14.302,13.853-29.096,28.178-43.791,42.713
		c-2.189,2.163-3.301,3.973-3.281,5.377c0.006,1.321,1.018,2.962,3.028,4.869c6.243,5.986,12.352,12.315,18.148,18.821
		c2.283,2.535,4.213,3.823,5.77,3.823c1.531,0,3.401-1.218,5.597-3.627l45.647-48.343v45.215l0.006,0.16l-0.006,23.552v75.043
		c0,30.89-0.013,138.134,0.027,169.02c0.026,12.904,11.699,21.636,23.04,22.295c11.34-0.659,23.014-9.391,23.04-22.295
		c0.04-30.886,0.026-138.13,0.007-169.02v-75.043v-23.552v-0.16V76.69l45.654,48.343c2.195,2.409,4.079,3.627,5.604,3.627
		c1.563,0,3.487-1.288,5.763-3.823c5.79-6.506,11.913-12.835,18.169-18.821c1.996-1.907,3.001-3.547,3.021-4.869
		C348.543,99.744,347.444,97.934,345.255,95.771z"/>
	<path fill-rule="evenodd" clip-rule="evenodd" fill="#EC7622" d="M402.755,392.976c0-10.615-7.666-19.221-17.13-19.221H248.556
		c-9.47,0-17.13,8.605-17.13,19.221l0,0c0,10.614,7.66,19.22,17.13,19.22h137.069C395.089,412.195,402.755,403.59,402.755,392.976
		L402.755,392.976z"/>
</g>
</svg>
